G75*
%MOIN*%
%OFA0B0*%
%FSLAX25Y25*%
%IPPOS*%
%LPD*%
%AMOC8*
5,1,8,0,0,1.08239X$1,22.5*
%
%ADD10C,0.05600*%
%ADD11OC8,0.06400*%
%ADD12C,0.06400*%
%ADD13OC8,0.05600*%
D10*
X0038133Y0007385D02*
X0043333Y0007385D01*
X0043333Y0017385D02*
X0038133Y0017385D01*
X0038133Y0027385D02*
X0043333Y0027385D01*
X0073333Y0027385D02*
X0078533Y0027385D01*
X0088133Y0027385D02*
X0093333Y0027385D01*
X0093333Y0017385D02*
X0088133Y0017385D01*
X0078533Y0017385D02*
X0073333Y0017385D01*
X0073333Y0007385D02*
X0078533Y0007385D01*
X0088133Y0007385D02*
X0093333Y0007385D01*
X0123333Y0007385D02*
X0128533Y0007385D01*
X0128533Y0017385D02*
X0123333Y0017385D01*
X0123333Y0027385D02*
X0128533Y0027385D01*
X0128533Y0044885D02*
X0123333Y0044885D01*
X0123333Y0054885D02*
X0128533Y0054885D01*
X0128533Y0064885D02*
X0123333Y0064885D01*
X0123333Y0082385D02*
X0128533Y0082385D01*
X0128533Y0092385D02*
X0123333Y0092385D01*
X0123333Y0102385D02*
X0128533Y0102385D01*
X0093333Y0102385D02*
X0088133Y0102385D01*
X0088133Y0092385D02*
X0093333Y0092385D01*
X0093333Y0082385D02*
X0088133Y0082385D01*
X0088133Y0064885D02*
X0093333Y0064885D01*
X0093333Y0054885D02*
X0088133Y0054885D01*
X0088133Y0044885D02*
X0093333Y0044885D01*
D11*
X0138333Y0042385D03*
X0148333Y0042385D03*
X0148333Y0052385D03*
X0138333Y0052385D03*
X0138333Y0062385D03*
X0148333Y0062385D03*
X0148333Y0072385D03*
X0138333Y0072385D03*
X0138333Y0082385D03*
X0148333Y0082385D03*
X0148333Y0092385D03*
X0138333Y0092385D03*
X0138333Y0102385D03*
X0148333Y0102385D03*
X0148333Y0112385D03*
X0138333Y0112385D03*
X0138333Y0032385D03*
X0148333Y0032385D03*
D12*
X0018833Y0009885D02*
X0012833Y0009885D01*
X0012833Y0019885D02*
X0018833Y0019885D01*
X0018833Y0034885D02*
X0012833Y0034885D01*
X0012833Y0044885D02*
X0018833Y0044885D01*
X0018833Y0059885D02*
X0012833Y0059885D01*
X0012833Y0069885D02*
X0018833Y0069885D01*
X0018833Y0084885D02*
X0012833Y0084885D01*
X0012833Y0094885D02*
X0018833Y0094885D01*
D13*
X0033333Y0114885D03*
X0048333Y0114885D03*
X0063333Y0114885D03*
X0078333Y0114885D03*
X0078333Y0064885D03*
X0080833Y0054885D03*
X0080833Y0039885D03*
X0063333Y0064885D03*
X0048333Y0064885D03*
X0033333Y0064885D03*
X0030833Y0054885D03*
X0030833Y0039885D03*
M02*
