%
M48
M72
T01C0.01181
T02C0.03200
T03C0.04000
%
T01
X104353Y18850
T02
X93333Y17385
X93333Y27385
X80833Y39885
X93333Y44885
X93333Y54885
X93333Y64885
X80833Y54885
X78333Y64885
X63333Y64885
X48333Y64885
X33333Y64885
X30833Y54885
X30833Y39885
X43333Y27385
X43333Y17385
X43333Y7385
X73333Y7385
X73333Y17385
X73333Y27385
X93333Y7385
X123333Y7385
X123333Y17385
X123333Y27385
X123333Y44885
X123333Y54885
X123333Y64885
X123333Y82385
X123333Y92385
X123333Y102385
X93333Y102385
X93333Y92385
X93333Y82385
X78333Y114885
X63333Y114885
X48333Y114885
X33333Y114885
T03
X15833Y9885
X15833Y19885
X15833Y34885
X15833Y44885
X15833Y59885
X15833Y69885
X15833Y84885
X15833Y94885
X138333Y92385
X148333Y92385
X148333Y82385
X138333Y82385
X138333Y72385
X148333Y72385
X148333Y62385
X138333Y62385
X138333Y52385
X148333Y52385
X148333Y42385
X138333Y42385
X138333Y32385
X148333Y32385
X148333Y102385
X138333Y102385
X138333Y112385
X148333Y112385
M30
