G75*
%MOIN*%
%OFA0B0*%
%FSLAX25Y25*%
%IPPOS*%
%LPD*%
%AMOC8*
5,1,8,0,0,1.08239X$1,22.5*
%
%ADD10C,0.00000*%
%ADD11C,0.00600*%
%ADD12C,0.00500*%
%ADD13C,0.00400*%
%ADD14R,0.02400X0.03400*%
%ADD15R,0.03400X0.02400*%
D10*
X0002503Y0001000D02*
X0002503Y0118961D01*
X0154204Y0118961D01*
X0154204Y0001000D01*
X0002503Y0001000D01*
D11*
X0010833Y0007385D02*
X0010833Y0012385D01*
X0013333Y0014885D01*
X0010833Y0017385D01*
X0010833Y0022385D01*
X0013333Y0024885D01*
X0018333Y0024885D01*
X0020833Y0022385D01*
X0020833Y0017385D01*
X0018333Y0014885D01*
X0020833Y0012385D01*
X0020833Y0007385D01*
X0018333Y0004885D01*
X0013333Y0004885D01*
X0010833Y0007385D01*
X0013333Y0014885D02*
X0018333Y0014885D01*
X0007904Y0020887D02*
X0003633Y0020887D01*
X0005768Y0018752D02*
X0005768Y0023023D01*
X0013333Y0029885D02*
X0010833Y0032385D01*
X0010833Y0037385D01*
X0013333Y0039885D01*
X0010833Y0042385D01*
X0010833Y0047385D01*
X0013333Y0049885D01*
X0018333Y0049885D01*
X0020833Y0047385D01*
X0020833Y0042385D01*
X0018333Y0039885D01*
X0020833Y0037385D01*
X0020833Y0032385D01*
X0018333Y0029885D01*
X0013333Y0029885D01*
X0013333Y0039885D02*
X0018333Y0039885D01*
X0007904Y0045887D02*
X0003633Y0045887D01*
X0005768Y0043752D02*
X0005768Y0048023D01*
X0013333Y0054885D02*
X0010833Y0057385D01*
X0010833Y0062385D01*
X0013333Y0064885D01*
X0010833Y0067385D01*
X0010833Y0072385D01*
X0013333Y0074885D01*
X0018333Y0074885D01*
X0020833Y0072385D01*
X0020833Y0067385D01*
X0018333Y0064885D01*
X0020833Y0062385D01*
X0020833Y0057385D01*
X0018333Y0054885D01*
X0013333Y0054885D01*
X0013333Y0064885D02*
X0018333Y0064885D01*
X0007904Y0070887D02*
X0003633Y0070887D01*
X0005768Y0068752D02*
X0005768Y0073023D01*
X0013333Y0079885D02*
X0010833Y0082385D01*
X0010833Y0087385D01*
X0013333Y0089885D01*
X0010833Y0092385D01*
X0010833Y0097385D01*
X0013333Y0099885D01*
X0018333Y0099885D01*
X0020833Y0097385D01*
X0020833Y0092385D01*
X0018333Y0089885D01*
X0020833Y0087385D01*
X0020833Y0082385D01*
X0018333Y0079885D01*
X0013333Y0079885D01*
X0013333Y0089885D02*
X0018333Y0089885D01*
X0007904Y0095887D02*
X0003633Y0095887D01*
X0005768Y0093752D02*
X0005768Y0098023D01*
X0027333Y0103385D02*
X0027333Y0105885D01*
X0027335Y0105945D01*
X0027340Y0106006D01*
X0027349Y0106065D01*
X0027362Y0106124D01*
X0027378Y0106183D01*
X0027398Y0106240D01*
X0027421Y0106295D01*
X0027448Y0106350D01*
X0027477Y0106402D01*
X0027510Y0106453D01*
X0027546Y0106502D01*
X0027584Y0106548D01*
X0027626Y0106592D01*
X0027670Y0106634D01*
X0027716Y0106672D01*
X0027765Y0106708D01*
X0027816Y0106741D01*
X0027868Y0106770D01*
X0027923Y0106797D01*
X0027978Y0106820D01*
X0028035Y0106840D01*
X0028094Y0106856D01*
X0028153Y0106869D01*
X0028212Y0106878D01*
X0028273Y0106883D01*
X0028333Y0106885D01*
X0038333Y0106885D01*
X0038393Y0106883D01*
X0038454Y0106878D01*
X0038513Y0106869D01*
X0038572Y0106856D01*
X0038631Y0106840D01*
X0038688Y0106820D01*
X0038743Y0106797D01*
X0038798Y0106770D01*
X0038850Y0106741D01*
X0038901Y0106708D01*
X0038950Y0106672D01*
X0038996Y0106634D01*
X0039040Y0106592D01*
X0039082Y0106548D01*
X0039120Y0106502D01*
X0039156Y0106453D01*
X0039189Y0106402D01*
X0039218Y0106350D01*
X0039245Y0106295D01*
X0039268Y0106240D01*
X0039288Y0106183D01*
X0039304Y0106124D01*
X0039317Y0106065D01*
X0039326Y0106006D01*
X0039331Y0105945D01*
X0039333Y0105885D01*
X0039333Y0103385D01*
X0038833Y0102885D01*
X0038833Y0076885D01*
X0039333Y0076385D01*
X0039333Y0073885D01*
X0039331Y0073825D01*
X0039326Y0073764D01*
X0039317Y0073705D01*
X0039304Y0073646D01*
X0039288Y0073587D01*
X0039268Y0073530D01*
X0039245Y0073475D01*
X0039218Y0073420D01*
X0039189Y0073368D01*
X0039156Y0073317D01*
X0039120Y0073268D01*
X0039082Y0073222D01*
X0039040Y0073178D01*
X0038996Y0073136D01*
X0038950Y0073098D01*
X0038901Y0073062D01*
X0038850Y0073029D01*
X0038798Y0073000D01*
X0038743Y0072973D01*
X0038688Y0072950D01*
X0038631Y0072930D01*
X0038572Y0072914D01*
X0038513Y0072901D01*
X0038454Y0072892D01*
X0038393Y0072887D01*
X0038333Y0072885D01*
X0028333Y0072885D01*
X0028273Y0072887D01*
X0028212Y0072892D01*
X0028153Y0072901D01*
X0028094Y0072914D01*
X0028035Y0072930D01*
X0027978Y0072950D01*
X0027923Y0072973D01*
X0027868Y0073000D01*
X0027816Y0073029D01*
X0027765Y0073062D01*
X0027716Y0073098D01*
X0027670Y0073136D01*
X0027626Y0073178D01*
X0027584Y0073222D01*
X0027546Y0073268D01*
X0027510Y0073317D01*
X0027477Y0073368D01*
X0027448Y0073420D01*
X0027421Y0073475D01*
X0027398Y0073530D01*
X0027378Y0073587D01*
X0027362Y0073646D01*
X0027349Y0073705D01*
X0027340Y0073764D01*
X0027335Y0073825D01*
X0027333Y0073885D01*
X0027333Y0076385D01*
X0027833Y0076885D01*
X0027833Y0102885D01*
X0027333Y0103385D01*
X0042333Y0103385D02*
X0042333Y0105885D01*
X0042335Y0105945D01*
X0042340Y0106006D01*
X0042349Y0106065D01*
X0042362Y0106124D01*
X0042378Y0106183D01*
X0042398Y0106240D01*
X0042421Y0106295D01*
X0042448Y0106350D01*
X0042477Y0106402D01*
X0042510Y0106453D01*
X0042546Y0106502D01*
X0042584Y0106548D01*
X0042626Y0106592D01*
X0042670Y0106634D01*
X0042716Y0106672D01*
X0042765Y0106708D01*
X0042816Y0106741D01*
X0042868Y0106770D01*
X0042923Y0106797D01*
X0042978Y0106820D01*
X0043035Y0106840D01*
X0043094Y0106856D01*
X0043153Y0106869D01*
X0043212Y0106878D01*
X0043273Y0106883D01*
X0043333Y0106885D01*
X0053333Y0106885D01*
X0053393Y0106883D01*
X0053454Y0106878D01*
X0053513Y0106869D01*
X0053572Y0106856D01*
X0053631Y0106840D01*
X0053688Y0106820D01*
X0053743Y0106797D01*
X0053798Y0106770D01*
X0053850Y0106741D01*
X0053901Y0106708D01*
X0053950Y0106672D01*
X0053996Y0106634D01*
X0054040Y0106592D01*
X0054082Y0106548D01*
X0054120Y0106502D01*
X0054156Y0106453D01*
X0054189Y0106402D01*
X0054218Y0106350D01*
X0054245Y0106295D01*
X0054268Y0106240D01*
X0054288Y0106183D01*
X0054304Y0106124D01*
X0054317Y0106065D01*
X0054326Y0106006D01*
X0054331Y0105945D01*
X0054333Y0105885D01*
X0054333Y0103385D01*
X0053833Y0102885D01*
X0053833Y0076885D01*
X0054333Y0076385D01*
X0054333Y0073885D01*
X0054331Y0073825D01*
X0054326Y0073764D01*
X0054317Y0073705D01*
X0054304Y0073646D01*
X0054288Y0073587D01*
X0054268Y0073530D01*
X0054245Y0073475D01*
X0054218Y0073420D01*
X0054189Y0073368D01*
X0054156Y0073317D01*
X0054120Y0073268D01*
X0054082Y0073222D01*
X0054040Y0073178D01*
X0053996Y0073136D01*
X0053950Y0073098D01*
X0053901Y0073062D01*
X0053850Y0073029D01*
X0053798Y0073000D01*
X0053743Y0072973D01*
X0053688Y0072950D01*
X0053631Y0072930D01*
X0053572Y0072914D01*
X0053513Y0072901D01*
X0053454Y0072892D01*
X0053393Y0072887D01*
X0053333Y0072885D01*
X0043333Y0072885D01*
X0043273Y0072887D01*
X0043212Y0072892D01*
X0043153Y0072901D01*
X0043094Y0072914D01*
X0043035Y0072930D01*
X0042978Y0072950D01*
X0042923Y0072973D01*
X0042868Y0073000D01*
X0042816Y0073029D01*
X0042765Y0073062D01*
X0042716Y0073098D01*
X0042670Y0073136D01*
X0042626Y0073178D01*
X0042584Y0073222D01*
X0042546Y0073268D01*
X0042510Y0073317D01*
X0042477Y0073368D01*
X0042448Y0073420D01*
X0042421Y0073475D01*
X0042398Y0073530D01*
X0042378Y0073587D01*
X0042362Y0073646D01*
X0042349Y0073705D01*
X0042340Y0073764D01*
X0042335Y0073825D01*
X0042333Y0073885D01*
X0042333Y0076385D01*
X0042833Y0076885D01*
X0042833Y0102885D01*
X0042333Y0103385D01*
X0057333Y0103385D02*
X0057333Y0105885D01*
X0057335Y0105945D01*
X0057340Y0106006D01*
X0057349Y0106065D01*
X0057362Y0106124D01*
X0057378Y0106183D01*
X0057398Y0106240D01*
X0057421Y0106295D01*
X0057448Y0106350D01*
X0057477Y0106402D01*
X0057510Y0106453D01*
X0057546Y0106502D01*
X0057584Y0106548D01*
X0057626Y0106592D01*
X0057670Y0106634D01*
X0057716Y0106672D01*
X0057765Y0106708D01*
X0057816Y0106741D01*
X0057868Y0106770D01*
X0057923Y0106797D01*
X0057978Y0106820D01*
X0058035Y0106840D01*
X0058094Y0106856D01*
X0058153Y0106869D01*
X0058212Y0106878D01*
X0058273Y0106883D01*
X0058333Y0106885D01*
X0068333Y0106885D01*
X0068393Y0106883D01*
X0068454Y0106878D01*
X0068513Y0106869D01*
X0068572Y0106856D01*
X0068631Y0106840D01*
X0068688Y0106820D01*
X0068743Y0106797D01*
X0068798Y0106770D01*
X0068850Y0106741D01*
X0068901Y0106708D01*
X0068950Y0106672D01*
X0068996Y0106634D01*
X0069040Y0106592D01*
X0069082Y0106548D01*
X0069120Y0106502D01*
X0069156Y0106453D01*
X0069189Y0106402D01*
X0069218Y0106350D01*
X0069245Y0106295D01*
X0069268Y0106240D01*
X0069288Y0106183D01*
X0069304Y0106124D01*
X0069317Y0106065D01*
X0069326Y0106006D01*
X0069331Y0105945D01*
X0069333Y0105885D01*
X0069333Y0103385D01*
X0068833Y0102885D01*
X0068833Y0076885D01*
X0069333Y0076385D01*
X0069333Y0073885D01*
X0069331Y0073825D01*
X0069326Y0073764D01*
X0069317Y0073705D01*
X0069304Y0073646D01*
X0069288Y0073587D01*
X0069268Y0073530D01*
X0069245Y0073475D01*
X0069218Y0073420D01*
X0069189Y0073368D01*
X0069156Y0073317D01*
X0069120Y0073268D01*
X0069082Y0073222D01*
X0069040Y0073178D01*
X0068996Y0073136D01*
X0068950Y0073098D01*
X0068901Y0073062D01*
X0068850Y0073029D01*
X0068798Y0073000D01*
X0068743Y0072973D01*
X0068688Y0072950D01*
X0068631Y0072930D01*
X0068572Y0072914D01*
X0068513Y0072901D01*
X0068454Y0072892D01*
X0068393Y0072887D01*
X0068333Y0072885D01*
X0058333Y0072885D01*
X0058273Y0072887D01*
X0058212Y0072892D01*
X0058153Y0072901D01*
X0058094Y0072914D01*
X0058035Y0072930D01*
X0057978Y0072950D01*
X0057923Y0072973D01*
X0057868Y0073000D01*
X0057816Y0073029D01*
X0057765Y0073062D01*
X0057716Y0073098D01*
X0057670Y0073136D01*
X0057626Y0073178D01*
X0057584Y0073222D01*
X0057546Y0073268D01*
X0057510Y0073317D01*
X0057477Y0073368D01*
X0057448Y0073420D01*
X0057421Y0073475D01*
X0057398Y0073530D01*
X0057378Y0073587D01*
X0057362Y0073646D01*
X0057349Y0073705D01*
X0057340Y0073764D01*
X0057335Y0073825D01*
X0057333Y0073885D01*
X0057333Y0076385D01*
X0057833Y0076885D01*
X0057833Y0102885D01*
X0057333Y0103385D01*
X0072333Y0103385D02*
X0072333Y0105885D01*
X0072335Y0105945D01*
X0072340Y0106006D01*
X0072349Y0106065D01*
X0072362Y0106124D01*
X0072378Y0106183D01*
X0072398Y0106240D01*
X0072421Y0106295D01*
X0072448Y0106350D01*
X0072477Y0106402D01*
X0072510Y0106453D01*
X0072546Y0106502D01*
X0072584Y0106548D01*
X0072626Y0106592D01*
X0072670Y0106634D01*
X0072716Y0106672D01*
X0072765Y0106708D01*
X0072816Y0106741D01*
X0072868Y0106770D01*
X0072923Y0106797D01*
X0072978Y0106820D01*
X0073035Y0106840D01*
X0073094Y0106856D01*
X0073153Y0106869D01*
X0073212Y0106878D01*
X0073273Y0106883D01*
X0073333Y0106885D01*
X0083333Y0106885D01*
X0083393Y0106883D01*
X0083454Y0106878D01*
X0083513Y0106869D01*
X0083572Y0106856D01*
X0083631Y0106840D01*
X0083688Y0106820D01*
X0083743Y0106797D01*
X0083798Y0106770D01*
X0083850Y0106741D01*
X0083901Y0106708D01*
X0083950Y0106672D01*
X0083996Y0106634D01*
X0084040Y0106592D01*
X0084082Y0106548D01*
X0084120Y0106502D01*
X0084156Y0106453D01*
X0084189Y0106402D01*
X0084218Y0106350D01*
X0084245Y0106295D01*
X0084268Y0106240D01*
X0084288Y0106183D01*
X0084304Y0106124D01*
X0084317Y0106065D01*
X0084326Y0106006D01*
X0084331Y0105945D01*
X0084333Y0105885D01*
X0084333Y0103385D01*
X0083833Y0102885D01*
X0083833Y0076885D01*
X0084333Y0076385D01*
X0084333Y0073885D01*
X0084331Y0073825D01*
X0084326Y0073764D01*
X0084317Y0073705D01*
X0084304Y0073646D01*
X0084288Y0073587D01*
X0084268Y0073530D01*
X0084245Y0073475D01*
X0084218Y0073420D01*
X0084189Y0073368D01*
X0084156Y0073317D01*
X0084120Y0073268D01*
X0084082Y0073222D01*
X0084040Y0073178D01*
X0083996Y0073136D01*
X0083950Y0073098D01*
X0083901Y0073062D01*
X0083850Y0073029D01*
X0083798Y0073000D01*
X0083743Y0072973D01*
X0083688Y0072950D01*
X0083631Y0072930D01*
X0083572Y0072914D01*
X0083513Y0072901D01*
X0083454Y0072892D01*
X0083393Y0072887D01*
X0083333Y0072885D01*
X0073333Y0072885D01*
X0073273Y0072887D01*
X0073212Y0072892D01*
X0073153Y0072901D01*
X0073094Y0072914D01*
X0073035Y0072930D01*
X0072978Y0072950D01*
X0072923Y0072973D01*
X0072868Y0073000D01*
X0072816Y0073029D01*
X0072765Y0073062D01*
X0072716Y0073098D01*
X0072670Y0073136D01*
X0072626Y0073178D01*
X0072584Y0073222D01*
X0072546Y0073268D01*
X0072510Y0073317D01*
X0072477Y0073368D01*
X0072448Y0073420D01*
X0072421Y0073475D01*
X0072398Y0073530D01*
X0072378Y0073587D01*
X0072362Y0073646D01*
X0072349Y0073705D01*
X0072340Y0073764D01*
X0072335Y0073825D01*
X0072333Y0073885D01*
X0072333Y0076385D01*
X0072833Y0076885D01*
X0072833Y0102885D01*
X0072333Y0103385D01*
X0096833Y0107385D02*
X0104333Y0107385D01*
X0104335Y0107259D01*
X0104341Y0107134D01*
X0104351Y0107009D01*
X0104365Y0106884D01*
X0104382Y0106759D01*
X0104404Y0106635D01*
X0104429Y0106512D01*
X0104459Y0106390D01*
X0104492Y0106269D01*
X0104529Y0106149D01*
X0104569Y0106030D01*
X0104614Y0105913D01*
X0104662Y0105796D01*
X0104714Y0105682D01*
X0104769Y0105569D01*
X0104828Y0105458D01*
X0104890Y0105349D01*
X0104956Y0105242D01*
X0105025Y0105137D01*
X0105097Y0105034D01*
X0105172Y0104933D01*
X0105251Y0104835D01*
X0105333Y0104740D01*
X0105417Y0104647D01*
X0105505Y0104557D01*
X0105595Y0104469D01*
X0105688Y0104385D01*
X0105783Y0104303D01*
X0105881Y0104224D01*
X0105982Y0104149D01*
X0106085Y0104077D01*
X0106190Y0104008D01*
X0106297Y0103942D01*
X0106406Y0103880D01*
X0106517Y0103821D01*
X0106630Y0103766D01*
X0106744Y0103714D01*
X0106861Y0103666D01*
X0106978Y0103621D01*
X0107097Y0103581D01*
X0107217Y0103544D01*
X0107338Y0103511D01*
X0107460Y0103481D01*
X0107583Y0103456D01*
X0107707Y0103434D01*
X0107832Y0103417D01*
X0107957Y0103403D01*
X0108082Y0103393D01*
X0108207Y0103387D01*
X0108333Y0103385D01*
X0108459Y0103387D01*
X0108584Y0103393D01*
X0108709Y0103403D01*
X0108834Y0103417D01*
X0108959Y0103434D01*
X0109083Y0103456D01*
X0109206Y0103481D01*
X0109328Y0103511D01*
X0109449Y0103544D01*
X0109569Y0103581D01*
X0109688Y0103621D01*
X0109805Y0103666D01*
X0109922Y0103714D01*
X0110036Y0103766D01*
X0110149Y0103821D01*
X0110260Y0103880D01*
X0110369Y0103942D01*
X0110476Y0104008D01*
X0110581Y0104077D01*
X0110684Y0104149D01*
X0110785Y0104224D01*
X0110883Y0104303D01*
X0110978Y0104385D01*
X0111071Y0104469D01*
X0111161Y0104557D01*
X0111249Y0104647D01*
X0111333Y0104740D01*
X0111415Y0104835D01*
X0111494Y0104933D01*
X0111569Y0105034D01*
X0111641Y0105137D01*
X0111710Y0105242D01*
X0111776Y0105349D01*
X0111838Y0105458D01*
X0111897Y0105569D01*
X0111952Y0105682D01*
X0112004Y0105796D01*
X0112052Y0105913D01*
X0112097Y0106030D01*
X0112137Y0106149D01*
X0112174Y0106269D01*
X0112207Y0106390D01*
X0112237Y0106512D01*
X0112262Y0106635D01*
X0112284Y0106759D01*
X0112301Y0106884D01*
X0112315Y0107009D01*
X0112325Y0107134D01*
X0112331Y0107259D01*
X0112333Y0107385D01*
X0119833Y0107385D01*
X0119833Y0077385D01*
X0096833Y0077385D01*
X0096833Y0107385D01*
X0133333Y0109885D02*
X0133333Y0114885D01*
X0135833Y0117385D01*
X0150833Y0117385D01*
X0153333Y0114885D01*
X0153333Y0109885D01*
X0150833Y0107385D01*
X0135833Y0107385D01*
X0133333Y0104885D01*
X0133333Y0099885D01*
X0135833Y0097385D01*
X0150833Y0097385D01*
X0153333Y0094885D01*
X0153333Y0089885D01*
X0150833Y0087385D01*
X0135833Y0087385D01*
X0133333Y0084885D01*
X0133333Y0079885D01*
X0135833Y0077385D01*
X0150833Y0077385D01*
X0153333Y0074885D01*
X0153333Y0069885D01*
X0150833Y0067385D01*
X0135833Y0067385D01*
X0133333Y0064885D01*
X0133333Y0059885D01*
X0135833Y0057385D01*
X0150833Y0057385D01*
X0153333Y0054885D01*
X0153333Y0049885D01*
X0150833Y0047385D01*
X0135833Y0047385D01*
X0133333Y0049885D01*
X0133333Y0054885D01*
X0135833Y0057385D01*
X0135833Y0047385D02*
X0133333Y0044885D01*
X0133333Y0039885D01*
X0135833Y0037385D01*
X0133333Y0034885D01*
X0133333Y0029885D01*
X0135833Y0027385D01*
X0150833Y0027385D01*
X0153333Y0029885D01*
X0153333Y0034885D01*
X0150833Y0037385D01*
X0135833Y0037385D01*
X0150833Y0037385D02*
X0153333Y0039885D01*
X0153333Y0044885D01*
X0150833Y0047385D01*
X0150833Y0057385D02*
X0153333Y0059885D01*
X0153333Y0064885D01*
X0150833Y0067385D01*
X0150833Y0077385D02*
X0153333Y0079885D01*
X0153333Y0084885D01*
X0150833Y0087385D01*
X0150833Y0097385D02*
X0153333Y0099885D01*
X0153333Y0104885D01*
X0150833Y0107385D01*
X0135833Y0107385D02*
X0133333Y0109885D01*
X0135833Y0097385D02*
X0133333Y0094885D01*
X0133333Y0089885D01*
X0135833Y0087385D01*
X0135833Y0077385D02*
X0133333Y0074885D01*
X0133333Y0069885D01*
X0135833Y0067385D01*
X0119833Y0069885D02*
X0112333Y0069885D01*
X0112331Y0069759D01*
X0112325Y0069634D01*
X0112315Y0069509D01*
X0112301Y0069384D01*
X0112284Y0069259D01*
X0112262Y0069135D01*
X0112237Y0069012D01*
X0112207Y0068890D01*
X0112174Y0068769D01*
X0112137Y0068649D01*
X0112097Y0068530D01*
X0112052Y0068413D01*
X0112004Y0068296D01*
X0111952Y0068182D01*
X0111897Y0068069D01*
X0111838Y0067958D01*
X0111776Y0067849D01*
X0111710Y0067742D01*
X0111641Y0067637D01*
X0111569Y0067534D01*
X0111494Y0067433D01*
X0111415Y0067335D01*
X0111333Y0067240D01*
X0111249Y0067147D01*
X0111161Y0067057D01*
X0111071Y0066969D01*
X0110978Y0066885D01*
X0110883Y0066803D01*
X0110785Y0066724D01*
X0110684Y0066649D01*
X0110581Y0066577D01*
X0110476Y0066508D01*
X0110369Y0066442D01*
X0110260Y0066380D01*
X0110149Y0066321D01*
X0110036Y0066266D01*
X0109922Y0066214D01*
X0109805Y0066166D01*
X0109688Y0066121D01*
X0109569Y0066081D01*
X0109449Y0066044D01*
X0109328Y0066011D01*
X0109206Y0065981D01*
X0109083Y0065956D01*
X0108959Y0065934D01*
X0108834Y0065917D01*
X0108709Y0065903D01*
X0108584Y0065893D01*
X0108459Y0065887D01*
X0108333Y0065885D01*
X0108207Y0065887D01*
X0108082Y0065893D01*
X0107957Y0065903D01*
X0107832Y0065917D01*
X0107707Y0065934D01*
X0107583Y0065956D01*
X0107460Y0065981D01*
X0107338Y0066011D01*
X0107217Y0066044D01*
X0107097Y0066081D01*
X0106978Y0066121D01*
X0106861Y0066166D01*
X0106744Y0066214D01*
X0106630Y0066266D01*
X0106517Y0066321D01*
X0106406Y0066380D01*
X0106297Y0066442D01*
X0106190Y0066508D01*
X0106085Y0066577D01*
X0105982Y0066649D01*
X0105881Y0066724D01*
X0105783Y0066803D01*
X0105688Y0066885D01*
X0105595Y0066969D01*
X0105505Y0067057D01*
X0105417Y0067147D01*
X0105333Y0067240D01*
X0105251Y0067335D01*
X0105172Y0067433D01*
X0105097Y0067534D01*
X0105025Y0067637D01*
X0104956Y0067742D01*
X0104890Y0067849D01*
X0104828Y0067958D01*
X0104769Y0068069D01*
X0104714Y0068182D01*
X0104662Y0068296D01*
X0104614Y0068413D01*
X0104569Y0068530D01*
X0104529Y0068649D01*
X0104492Y0068769D01*
X0104459Y0068890D01*
X0104429Y0069012D01*
X0104404Y0069135D01*
X0104382Y0069259D01*
X0104365Y0069384D01*
X0104351Y0069509D01*
X0104341Y0069634D01*
X0104335Y0069759D01*
X0104333Y0069885D01*
X0096833Y0069885D01*
X0096833Y0039885D01*
X0119833Y0039885D01*
X0119833Y0069885D01*
X0072833Y0059885D02*
X0072833Y0049885D01*
X0072831Y0049825D01*
X0072826Y0049764D01*
X0072817Y0049705D01*
X0072804Y0049646D01*
X0072788Y0049587D01*
X0072768Y0049530D01*
X0072745Y0049475D01*
X0072718Y0049420D01*
X0072689Y0049368D01*
X0072656Y0049317D01*
X0072620Y0049268D01*
X0072582Y0049222D01*
X0072540Y0049178D01*
X0072496Y0049136D01*
X0072450Y0049098D01*
X0072401Y0049062D01*
X0072350Y0049029D01*
X0072298Y0049000D01*
X0072243Y0048973D01*
X0072188Y0048950D01*
X0072131Y0048930D01*
X0072072Y0048914D01*
X0072013Y0048901D01*
X0071954Y0048892D01*
X0071893Y0048887D01*
X0071833Y0048885D01*
X0069333Y0048885D01*
X0068833Y0049385D01*
X0042833Y0049385D01*
X0042333Y0048885D01*
X0039833Y0048885D01*
X0039773Y0048887D01*
X0039712Y0048892D01*
X0039653Y0048901D01*
X0039594Y0048914D01*
X0039535Y0048930D01*
X0039478Y0048950D01*
X0039423Y0048973D01*
X0039368Y0049000D01*
X0039316Y0049029D01*
X0039265Y0049062D01*
X0039216Y0049098D01*
X0039170Y0049136D01*
X0039126Y0049178D01*
X0039084Y0049222D01*
X0039046Y0049268D01*
X0039010Y0049317D01*
X0038977Y0049368D01*
X0038948Y0049420D01*
X0038921Y0049475D01*
X0038898Y0049530D01*
X0038878Y0049587D01*
X0038862Y0049646D01*
X0038849Y0049705D01*
X0038840Y0049764D01*
X0038835Y0049825D01*
X0038833Y0049885D01*
X0038833Y0059885D01*
X0038835Y0059945D01*
X0038840Y0060006D01*
X0038849Y0060065D01*
X0038862Y0060124D01*
X0038878Y0060183D01*
X0038898Y0060240D01*
X0038921Y0060295D01*
X0038948Y0060350D01*
X0038977Y0060402D01*
X0039010Y0060453D01*
X0039046Y0060502D01*
X0039084Y0060548D01*
X0039126Y0060592D01*
X0039170Y0060634D01*
X0039216Y0060672D01*
X0039265Y0060708D01*
X0039316Y0060741D01*
X0039368Y0060770D01*
X0039423Y0060797D01*
X0039478Y0060820D01*
X0039535Y0060840D01*
X0039594Y0060856D01*
X0039653Y0060869D01*
X0039712Y0060878D01*
X0039773Y0060883D01*
X0039833Y0060885D01*
X0042333Y0060885D01*
X0042833Y0060385D01*
X0068833Y0060385D01*
X0069333Y0060885D01*
X0071833Y0060885D01*
X0071893Y0060883D01*
X0071954Y0060878D01*
X0072013Y0060869D01*
X0072072Y0060856D01*
X0072131Y0060840D01*
X0072188Y0060820D01*
X0072243Y0060797D01*
X0072298Y0060770D01*
X0072350Y0060741D01*
X0072401Y0060708D01*
X0072450Y0060672D01*
X0072496Y0060634D01*
X0072540Y0060592D01*
X0072582Y0060548D01*
X0072620Y0060502D01*
X0072656Y0060453D01*
X0072689Y0060402D01*
X0072718Y0060350D01*
X0072745Y0060295D01*
X0072768Y0060240D01*
X0072788Y0060183D01*
X0072804Y0060124D01*
X0072817Y0060065D01*
X0072826Y0060006D01*
X0072831Y0059945D01*
X0072833Y0059885D01*
X0071833Y0045885D02*
X0069333Y0045885D01*
X0068833Y0045385D01*
X0042833Y0045385D01*
X0042333Y0045885D01*
X0039833Y0045885D01*
X0039773Y0045883D01*
X0039712Y0045878D01*
X0039653Y0045869D01*
X0039594Y0045856D01*
X0039535Y0045840D01*
X0039478Y0045820D01*
X0039423Y0045797D01*
X0039368Y0045770D01*
X0039316Y0045741D01*
X0039265Y0045708D01*
X0039216Y0045672D01*
X0039170Y0045634D01*
X0039126Y0045592D01*
X0039084Y0045548D01*
X0039046Y0045502D01*
X0039010Y0045453D01*
X0038977Y0045402D01*
X0038948Y0045350D01*
X0038921Y0045295D01*
X0038898Y0045240D01*
X0038878Y0045183D01*
X0038862Y0045124D01*
X0038849Y0045065D01*
X0038840Y0045006D01*
X0038835Y0044945D01*
X0038833Y0044885D01*
X0038833Y0034885D01*
X0038835Y0034825D01*
X0038840Y0034764D01*
X0038849Y0034705D01*
X0038862Y0034646D01*
X0038878Y0034587D01*
X0038898Y0034530D01*
X0038921Y0034475D01*
X0038948Y0034420D01*
X0038977Y0034368D01*
X0039010Y0034317D01*
X0039046Y0034268D01*
X0039084Y0034222D01*
X0039126Y0034178D01*
X0039170Y0034136D01*
X0039216Y0034098D01*
X0039265Y0034062D01*
X0039316Y0034029D01*
X0039368Y0034000D01*
X0039423Y0033973D01*
X0039478Y0033950D01*
X0039535Y0033930D01*
X0039594Y0033914D01*
X0039653Y0033901D01*
X0039712Y0033892D01*
X0039773Y0033887D01*
X0039833Y0033885D01*
X0042333Y0033885D01*
X0042833Y0034385D01*
X0068833Y0034385D01*
X0069333Y0033885D01*
X0071833Y0033885D01*
X0071893Y0033887D01*
X0071954Y0033892D01*
X0072013Y0033901D01*
X0072072Y0033914D01*
X0072131Y0033930D01*
X0072188Y0033950D01*
X0072243Y0033973D01*
X0072298Y0034000D01*
X0072350Y0034029D01*
X0072401Y0034062D01*
X0072450Y0034098D01*
X0072496Y0034136D01*
X0072540Y0034178D01*
X0072582Y0034222D01*
X0072620Y0034268D01*
X0072656Y0034317D01*
X0072689Y0034368D01*
X0072718Y0034420D01*
X0072745Y0034475D01*
X0072768Y0034530D01*
X0072788Y0034587D01*
X0072804Y0034646D01*
X0072817Y0034705D01*
X0072826Y0034764D01*
X0072831Y0034825D01*
X0072833Y0034885D01*
X0072833Y0044885D01*
X0072831Y0044945D01*
X0072826Y0045006D01*
X0072817Y0045065D01*
X0072804Y0045124D01*
X0072788Y0045183D01*
X0072768Y0045240D01*
X0072745Y0045295D01*
X0072718Y0045350D01*
X0072689Y0045402D01*
X0072656Y0045453D01*
X0072620Y0045502D01*
X0072582Y0045548D01*
X0072540Y0045592D01*
X0072496Y0045634D01*
X0072450Y0045672D01*
X0072401Y0045708D01*
X0072350Y0045741D01*
X0072298Y0045770D01*
X0072243Y0045797D01*
X0072188Y0045820D01*
X0072131Y0045840D01*
X0072072Y0045856D01*
X0072013Y0045869D01*
X0071954Y0045878D01*
X0071893Y0045883D01*
X0071833Y0045885D01*
X0069833Y0032385D02*
X0062333Y0032385D01*
X0062331Y0032259D01*
X0062325Y0032134D01*
X0062315Y0032009D01*
X0062301Y0031884D01*
X0062284Y0031759D01*
X0062262Y0031635D01*
X0062237Y0031512D01*
X0062207Y0031390D01*
X0062174Y0031269D01*
X0062137Y0031149D01*
X0062097Y0031030D01*
X0062052Y0030913D01*
X0062004Y0030796D01*
X0061952Y0030682D01*
X0061897Y0030569D01*
X0061838Y0030458D01*
X0061776Y0030349D01*
X0061710Y0030242D01*
X0061641Y0030137D01*
X0061569Y0030034D01*
X0061494Y0029933D01*
X0061415Y0029835D01*
X0061333Y0029740D01*
X0061249Y0029647D01*
X0061161Y0029557D01*
X0061071Y0029469D01*
X0060978Y0029385D01*
X0060883Y0029303D01*
X0060785Y0029224D01*
X0060684Y0029149D01*
X0060581Y0029077D01*
X0060476Y0029008D01*
X0060369Y0028942D01*
X0060260Y0028880D01*
X0060149Y0028821D01*
X0060036Y0028766D01*
X0059922Y0028714D01*
X0059805Y0028666D01*
X0059688Y0028621D01*
X0059569Y0028581D01*
X0059449Y0028544D01*
X0059328Y0028511D01*
X0059206Y0028481D01*
X0059083Y0028456D01*
X0058959Y0028434D01*
X0058834Y0028417D01*
X0058709Y0028403D01*
X0058584Y0028393D01*
X0058459Y0028387D01*
X0058333Y0028385D01*
X0058207Y0028387D01*
X0058082Y0028393D01*
X0057957Y0028403D01*
X0057832Y0028417D01*
X0057707Y0028434D01*
X0057583Y0028456D01*
X0057460Y0028481D01*
X0057338Y0028511D01*
X0057217Y0028544D01*
X0057097Y0028581D01*
X0056978Y0028621D01*
X0056861Y0028666D01*
X0056744Y0028714D01*
X0056630Y0028766D01*
X0056517Y0028821D01*
X0056406Y0028880D01*
X0056297Y0028942D01*
X0056190Y0029008D01*
X0056085Y0029077D01*
X0055982Y0029149D01*
X0055881Y0029224D01*
X0055783Y0029303D01*
X0055688Y0029385D01*
X0055595Y0029469D01*
X0055505Y0029557D01*
X0055417Y0029647D01*
X0055333Y0029740D01*
X0055251Y0029835D01*
X0055172Y0029933D01*
X0055097Y0030034D01*
X0055025Y0030137D01*
X0054956Y0030242D01*
X0054890Y0030349D01*
X0054828Y0030458D01*
X0054769Y0030569D01*
X0054714Y0030682D01*
X0054662Y0030796D01*
X0054614Y0030913D01*
X0054569Y0031030D01*
X0054529Y0031149D01*
X0054492Y0031269D01*
X0054459Y0031390D01*
X0054429Y0031512D01*
X0054404Y0031635D01*
X0054382Y0031759D01*
X0054365Y0031884D01*
X0054351Y0032009D01*
X0054341Y0032134D01*
X0054335Y0032259D01*
X0054333Y0032385D01*
X0046833Y0032385D01*
X0046833Y0002385D01*
X0069833Y0002385D01*
X0069833Y0032385D01*
X0096833Y0032385D02*
X0104333Y0032385D01*
X0104335Y0032259D01*
X0104341Y0032134D01*
X0104351Y0032009D01*
X0104365Y0031884D01*
X0104382Y0031759D01*
X0104404Y0031635D01*
X0104429Y0031512D01*
X0104459Y0031390D01*
X0104492Y0031269D01*
X0104529Y0031149D01*
X0104569Y0031030D01*
X0104614Y0030913D01*
X0104662Y0030796D01*
X0104714Y0030682D01*
X0104769Y0030569D01*
X0104828Y0030458D01*
X0104890Y0030349D01*
X0104956Y0030242D01*
X0105025Y0030137D01*
X0105097Y0030034D01*
X0105172Y0029933D01*
X0105251Y0029835D01*
X0105333Y0029740D01*
X0105417Y0029647D01*
X0105505Y0029557D01*
X0105595Y0029469D01*
X0105688Y0029385D01*
X0105783Y0029303D01*
X0105881Y0029224D01*
X0105982Y0029149D01*
X0106085Y0029077D01*
X0106190Y0029008D01*
X0106297Y0028942D01*
X0106406Y0028880D01*
X0106517Y0028821D01*
X0106630Y0028766D01*
X0106744Y0028714D01*
X0106861Y0028666D01*
X0106978Y0028621D01*
X0107097Y0028581D01*
X0107217Y0028544D01*
X0107338Y0028511D01*
X0107460Y0028481D01*
X0107583Y0028456D01*
X0107707Y0028434D01*
X0107832Y0028417D01*
X0107957Y0028403D01*
X0108082Y0028393D01*
X0108207Y0028387D01*
X0108333Y0028385D01*
X0108459Y0028387D01*
X0108584Y0028393D01*
X0108709Y0028403D01*
X0108834Y0028417D01*
X0108959Y0028434D01*
X0109083Y0028456D01*
X0109206Y0028481D01*
X0109328Y0028511D01*
X0109449Y0028544D01*
X0109569Y0028581D01*
X0109688Y0028621D01*
X0109805Y0028666D01*
X0109922Y0028714D01*
X0110036Y0028766D01*
X0110149Y0028821D01*
X0110260Y0028880D01*
X0110369Y0028942D01*
X0110476Y0029008D01*
X0110581Y0029077D01*
X0110684Y0029149D01*
X0110785Y0029224D01*
X0110883Y0029303D01*
X0110978Y0029385D01*
X0111071Y0029469D01*
X0111161Y0029557D01*
X0111249Y0029647D01*
X0111333Y0029740D01*
X0111415Y0029835D01*
X0111494Y0029933D01*
X0111569Y0030034D01*
X0111641Y0030137D01*
X0111710Y0030242D01*
X0111776Y0030349D01*
X0111838Y0030458D01*
X0111897Y0030569D01*
X0111952Y0030682D01*
X0112004Y0030796D01*
X0112052Y0030913D01*
X0112097Y0031030D01*
X0112137Y0031149D01*
X0112174Y0031269D01*
X0112207Y0031390D01*
X0112237Y0031512D01*
X0112262Y0031635D01*
X0112284Y0031759D01*
X0112301Y0031884D01*
X0112315Y0032009D01*
X0112325Y0032134D01*
X0112331Y0032259D01*
X0112333Y0032385D01*
X0119833Y0032385D01*
X0119833Y0002385D01*
X0096833Y0002385D01*
X0096833Y0032385D01*
D12*
X0102083Y0020638D02*
X0104335Y0020638D01*
X0105086Y0019888D01*
X0105086Y0018387D01*
X0104335Y0017636D01*
X0102083Y0017636D01*
X0102083Y0016135D02*
X0102083Y0020638D01*
X0106687Y0020638D02*
X0106687Y0016135D01*
X0109690Y0016135D01*
X0111291Y0016135D02*
X0113543Y0016135D01*
X0114294Y0016885D01*
X0114294Y0019888D01*
X0113543Y0020638D01*
X0111291Y0020638D01*
X0111291Y0016135D01*
X0138583Y0020885D02*
X0139334Y0020135D01*
X0140085Y0020135D01*
X0140835Y0020885D01*
X0140835Y0024638D01*
X0140085Y0024638D02*
X0141586Y0024638D01*
X0143187Y0024638D02*
X0145439Y0024638D01*
X0146190Y0023888D01*
X0146190Y0022387D01*
X0145439Y0021636D01*
X0143187Y0021636D01*
X0143187Y0020135D02*
X0143187Y0024638D01*
X0147791Y0023137D02*
X0149292Y0024638D01*
X0149292Y0020135D01*
X0147791Y0020135D02*
X0150794Y0020135D01*
X0112792Y0053635D02*
X0112792Y0058138D01*
X0111291Y0058138D02*
X0114294Y0058138D01*
X0109690Y0057388D02*
X0108939Y0058138D01*
X0107438Y0058138D01*
X0106687Y0057388D01*
X0106687Y0056637D01*
X0107438Y0055887D01*
X0108939Y0055887D01*
X0109690Y0055136D01*
X0109690Y0054385D01*
X0108939Y0053635D01*
X0107438Y0053635D01*
X0106687Y0054385D01*
X0105086Y0053635D02*
X0103585Y0055136D01*
X0104335Y0055136D02*
X0105086Y0055887D01*
X0105086Y0057388D01*
X0104335Y0058138D01*
X0102083Y0058138D01*
X0102083Y0053635D01*
X0102083Y0055136D02*
X0104335Y0055136D01*
X0067190Y0041388D02*
X0067190Y0040637D01*
X0066439Y0039887D01*
X0067190Y0039136D01*
X0067190Y0038385D01*
X0066439Y0037635D01*
X0064938Y0037635D01*
X0064187Y0038385D01*
X0062586Y0037635D02*
X0061085Y0039136D01*
X0061835Y0039136D02*
X0059583Y0039136D01*
X0059583Y0037635D02*
X0059583Y0042138D01*
X0061835Y0042138D01*
X0062586Y0041388D01*
X0062586Y0039887D01*
X0061835Y0039136D01*
X0064187Y0041388D02*
X0064938Y0042138D01*
X0066439Y0042138D01*
X0067190Y0041388D01*
X0066439Y0039887D02*
X0065689Y0039887D01*
X0052731Y0052635D02*
X0052731Y0057138D01*
X0050479Y0054887D01*
X0053482Y0054887D01*
X0048878Y0054887D02*
X0048127Y0054136D01*
X0045875Y0054136D01*
X0047377Y0054136D02*
X0048878Y0052635D01*
X0048878Y0054887D02*
X0048878Y0056388D01*
X0048127Y0057138D01*
X0045875Y0057138D01*
X0045875Y0052635D01*
X0027783Y0057373D02*
X0027783Y0058124D01*
X0027033Y0058875D01*
X0023279Y0058875D01*
X0023279Y0059625D02*
X0023279Y0058124D01*
X0023279Y0061227D02*
X0023279Y0063479D01*
X0024030Y0064229D01*
X0025531Y0064229D01*
X0026282Y0063479D01*
X0026282Y0061227D01*
X0027783Y0061227D02*
X0023279Y0061227D01*
X0027783Y0057373D02*
X0027033Y0056623D01*
X0025531Y0065831D02*
X0025531Y0068833D01*
X0027783Y0068083D02*
X0023279Y0068083D01*
X0025531Y0065831D01*
X0025531Y0043833D02*
X0027033Y0043833D01*
X0027783Y0043083D01*
X0027783Y0041581D01*
X0027033Y0040831D01*
X0025531Y0040831D02*
X0024781Y0042332D01*
X0024781Y0043083D01*
X0025531Y0043833D01*
X0023279Y0043833D02*
X0023279Y0040831D01*
X0025531Y0040831D01*
X0025531Y0039229D02*
X0024030Y0039229D01*
X0023279Y0038479D01*
X0023279Y0036227D01*
X0027783Y0036227D01*
X0026282Y0036227D02*
X0026282Y0038479D01*
X0025531Y0039229D01*
X0023279Y0034625D02*
X0023279Y0033124D01*
X0023279Y0033875D02*
X0027033Y0033875D01*
X0027783Y0033124D01*
X0027783Y0032373D01*
X0027033Y0031623D01*
X0027033Y0018833D02*
X0026282Y0018833D01*
X0025531Y0018083D01*
X0025531Y0015831D01*
X0027033Y0015831D01*
X0027783Y0016581D01*
X0027783Y0018083D01*
X0027033Y0018833D01*
X0025531Y0015831D02*
X0024030Y0017332D01*
X0023279Y0018833D01*
X0024030Y0014229D02*
X0023279Y0013479D01*
X0023279Y0011227D01*
X0027783Y0011227D01*
X0026282Y0011227D02*
X0026282Y0013479D01*
X0025531Y0014229D01*
X0024030Y0014229D01*
X0023279Y0009625D02*
X0023279Y0008124D01*
X0023279Y0008875D02*
X0027033Y0008875D01*
X0027783Y0008124D01*
X0027783Y0007373D01*
X0027033Y0006623D01*
X0054583Y0016135D02*
X0056085Y0016135D01*
X0055334Y0016135D02*
X0055334Y0020638D01*
X0054583Y0020638D02*
X0056085Y0020638D01*
X0057653Y0020638D02*
X0057653Y0016135D01*
X0060655Y0016135D01*
X0062257Y0016135D02*
X0064508Y0016135D01*
X0065259Y0016885D01*
X0065259Y0019888D01*
X0064508Y0020638D01*
X0062257Y0020638D01*
X0062257Y0016135D01*
X0102083Y0091135D02*
X0102083Y0095638D01*
X0104335Y0095638D01*
X0105086Y0094888D01*
X0105086Y0093387D01*
X0104335Y0092636D01*
X0102083Y0092636D01*
X0106687Y0091135D02*
X0108189Y0092636D01*
X0109690Y0091135D01*
X0109690Y0095638D01*
X0111291Y0095638D02*
X0113543Y0095638D01*
X0114294Y0094888D01*
X0114294Y0093387D01*
X0113543Y0092636D01*
X0111291Y0092636D01*
X0112792Y0092636D02*
X0114294Y0091135D01*
X0111291Y0091135D02*
X0111291Y0095638D01*
X0106687Y0095638D02*
X0106687Y0091135D01*
X0080583Y0094927D02*
X0076079Y0094927D01*
X0076079Y0097179D01*
X0076830Y0097929D01*
X0078331Y0097929D01*
X0079082Y0097179D01*
X0079082Y0094927D01*
X0079082Y0096428D02*
X0080583Y0097929D01*
X0080583Y0099531D02*
X0080583Y0102533D01*
X0080583Y0101032D02*
X0076079Y0101032D01*
X0077581Y0099531D01*
X0065583Y0098239D02*
X0062581Y0101241D01*
X0061830Y0101241D01*
X0061079Y0100490D01*
X0061079Y0098989D01*
X0061830Y0098239D01*
X0061830Y0096637D02*
X0063331Y0096637D01*
X0064082Y0095887D01*
X0064082Y0093635D01*
X0065583Y0093635D02*
X0061079Y0093635D01*
X0061079Y0095887D01*
X0061830Y0096637D01*
X0064082Y0095136D02*
X0065583Y0096637D01*
X0065583Y0098239D02*
X0065583Y0101241D01*
X0050583Y0100490D02*
X0050583Y0098989D01*
X0049833Y0098239D01*
X0048331Y0098239D02*
X0047581Y0099740D01*
X0047581Y0100490D01*
X0048331Y0101241D01*
X0049833Y0101241D01*
X0050583Y0100490D01*
X0048331Y0098239D02*
X0046079Y0098239D01*
X0046079Y0101241D01*
X0046830Y0096637D02*
X0048331Y0096637D01*
X0049082Y0095887D01*
X0049082Y0093635D01*
X0050583Y0093635D02*
X0046079Y0093635D01*
X0046079Y0095887D01*
X0046830Y0096637D01*
X0049082Y0095136D02*
X0050583Y0096637D01*
X0035583Y0096637D02*
X0034082Y0095136D01*
X0034082Y0095887D02*
X0034082Y0093635D01*
X0035583Y0093635D02*
X0031079Y0093635D01*
X0031079Y0095887D01*
X0031830Y0096637D01*
X0033331Y0096637D01*
X0034082Y0095887D01*
X0033331Y0098239D02*
X0033331Y0100490D01*
X0034082Y0101241D01*
X0034833Y0101241D01*
X0035583Y0100490D01*
X0035583Y0098989D01*
X0034833Y0098239D01*
X0033331Y0098239D01*
X0031830Y0099740D01*
X0031079Y0101241D01*
X0022994Y0102335D02*
X0019991Y0102335D01*
X0022994Y0105337D01*
X0022994Y0106088D01*
X0022243Y0106838D01*
X0020742Y0106838D01*
X0019991Y0106088D01*
X0018390Y0106088D02*
X0018390Y0104587D01*
X0017639Y0103836D01*
X0015387Y0103836D01*
X0015387Y0102335D02*
X0015387Y0106838D01*
X0017639Y0106838D01*
X0018390Y0106088D01*
X0013786Y0106838D02*
X0012285Y0106838D01*
X0013035Y0106838D02*
X0013035Y0103085D01*
X0012285Y0102335D01*
X0011534Y0102335D01*
X0010783Y0103085D01*
D13*
X0008133Y0091050D02*
X0006599Y0089515D01*
X0006599Y0090283D02*
X0005831Y0091050D01*
X0004297Y0091050D01*
X0003529Y0090283D01*
X0003529Y0087981D01*
X0008133Y0087981D01*
X0006599Y0087981D02*
X0006599Y0090283D01*
X0008133Y0086446D02*
X0003529Y0086446D01*
X0003529Y0083377D02*
X0008133Y0083377D01*
X0006599Y0084911D01*
X0008133Y0086446D01*
X0005831Y0081842D02*
X0004297Y0081842D01*
X0003529Y0081075D01*
X0003529Y0078773D01*
X0008133Y0078773D01*
X0006599Y0078773D02*
X0006599Y0081075D01*
X0005831Y0081842D01*
X0003529Y0064862D02*
X0003529Y0061792D01*
X0003529Y0063327D02*
X0008133Y0063327D01*
X0007366Y0060258D02*
X0008133Y0059491D01*
X0008133Y0057956D01*
X0007366Y0057189D01*
X0005831Y0057956D02*
X0005831Y0059491D01*
X0006599Y0060258D01*
X0007366Y0060258D01*
X0005831Y0057956D02*
X0005064Y0057189D01*
X0004297Y0057189D01*
X0003529Y0057956D01*
X0003529Y0059491D01*
X0004297Y0060258D01*
X0004297Y0055654D02*
X0005831Y0055654D01*
X0006599Y0054887D01*
X0006599Y0052585D01*
X0006599Y0054119D02*
X0008133Y0055654D01*
X0008133Y0052585D02*
X0003529Y0052585D01*
X0003529Y0054887D01*
X0004297Y0055654D01*
X0004297Y0041050D02*
X0003529Y0040283D01*
X0003529Y0037981D01*
X0008133Y0037981D01*
X0008133Y0040283D01*
X0007366Y0041050D01*
X0004297Y0041050D01*
X0008133Y0036446D02*
X0008133Y0033377D01*
X0003529Y0033377D01*
X0004297Y0031842D02*
X0005831Y0031842D01*
X0006599Y0031075D01*
X0006599Y0028773D01*
X0008133Y0028773D02*
X0003529Y0028773D01*
X0003529Y0031075D01*
X0004297Y0031842D01*
X0004297Y0016050D02*
X0003529Y0015283D01*
X0003529Y0012981D01*
X0008133Y0012981D01*
X0008133Y0015283D01*
X0007366Y0016050D01*
X0004297Y0016050D01*
X0008133Y0011446D02*
X0008133Y0008377D01*
X0003529Y0008377D01*
X0003529Y0006842D02*
X0003529Y0005307D01*
X0003529Y0006075D02*
X0008133Y0006075D01*
X0008133Y0006842D02*
X0008133Y0005307D01*
D14*
X0033333Y0071185D03*
X0048333Y0071185D03*
X0063333Y0071185D03*
X0078333Y0071185D03*
X0078333Y0108585D03*
X0063333Y0108585D03*
X0048333Y0108585D03*
X0033333Y0108585D03*
D15*
X0037133Y0054885D03*
X0037133Y0039885D03*
X0074533Y0039885D03*
X0074533Y0054885D03*
M02*
