G75*
%MOIN*%
%OFA0B0*%
%FSLAX25Y25*%
%IPPOS*%
%LPD*%
%AMOC8*
5,1,8,0,0,1.08239X$1,22.5*
%
%ADD10C,0.05200*%
%ADD11OC8,0.06000*%
%ADD12C,0.06000*%
%ADD13OC8,0.05200*%
%ADD14C,0.01500*%
%ADD15C,0.02381*%
D10*
X0038133Y0007385D02*
X0043333Y0007385D01*
X0043333Y0017385D02*
X0038133Y0017385D01*
X0038133Y0027385D02*
X0043333Y0027385D01*
X0073333Y0027385D02*
X0078533Y0027385D01*
X0088133Y0027385D02*
X0093333Y0027385D01*
X0093333Y0017385D02*
X0088133Y0017385D01*
X0078533Y0017385D02*
X0073333Y0017385D01*
X0073333Y0007385D02*
X0078533Y0007385D01*
X0088133Y0007385D02*
X0093333Y0007385D01*
X0123333Y0007385D02*
X0128533Y0007385D01*
X0128533Y0017385D02*
X0123333Y0017385D01*
X0123333Y0027385D02*
X0128533Y0027385D01*
X0128533Y0044885D02*
X0123333Y0044885D01*
X0123333Y0054885D02*
X0128533Y0054885D01*
X0128533Y0064885D02*
X0123333Y0064885D01*
X0123333Y0082385D02*
X0128533Y0082385D01*
X0128533Y0092385D02*
X0123333Y0092385D01*
X0123333Y0102385D02*
X0128533Y0102385D01*
X0093333Y0102385D02*
X0088133Y0102385D01*
X0088133Y0092385D02*
X0093333Y0092385D01*
X0093333Y0082385D02*
X0088133Y0082385D01*
X0088133Y0064885D02*
X0093333Y0064885D01*
X0093333Y0054885D02*
X0088133Y0054885D01*
X0088133Y0044885D02*
X0093333Y0044885D01*
D11*
X0138333Y0042385D03*
X0148333Y0042385D03*
X0148333Y0052385D03*
X0138333Y0052385D03*
X0138333Y0062385D03*
X0148333Y0062385D03*
X0148333Y0072385D03*
X0138333Y0072385D03*
X0138333Y0082385D03*
X0148333Y0082385D03*
X0148333Y0092385D03*
X0138333Y0092385D03*
X0138333Y0102385D03*
X0148333Y0102385D03*
X0148333Y0112385D03*
X0138333Y0112385D03*
X0138333Y0032385D03*
X0148333Y0032385D03*
D12*
X0018833Y0009885D02*
X0012833Y0009885D01*
X0012833Y0019885D02*
X0018833Y0019885D01*
X0018833Y0034885D02*
X0012833Y0034885D01*
X0012833Y0044885D02*
X0018833Y0044885D01*
X0018833Y0059885D02*
X0012833Y0059885D01*
X0012833Y0069885D02*
X0018833Y0069885D01*
X0018833Y0084885D02*
X0012833Y0084885D01*
X0012833Y0094885D02*
X0018833Y0094885D01*
D13*
X0033333Y0114885D03*
X0048333Y0114885D03*
X0063333Y0114885D03*
X0078333Y0114885D03*
X0078333Y0064885D03*
X0080833Y0054885D03*
X0080833Y0039885D03*
X0063333Y0064885D03*
X0048333Y0064885D03*
X0033333Y0064885D03*
X0030833Y0054885D03*
X0030833Y0039885D03*
D14*
X0030853Y0039850D01*
X0031903Y0038800D01*
X0072853Y0038800D01*
X0083353Y0028300D01*
X0092803Y0028300D01*
X0093333Y0027385D01*
X0104353Y0022000D02*
X0104353Y0018850D01*
X0104353Y0022000D02*
X0080203Y0046150D01*
X0026653Y0046150D01*
X0023503Y0049300D01*
X0017203Y0049300D01*
X0005653Y0060850D01*
X0005653Y0097600D01*
X0022453Y0114400D01*
X0032953Y0114400D01*
X0033333Y0114885D01*
X0020353Y0099700D02*
X0010903Y0099700D01*
X0007753Y0096550D01*
X0007753Y0068200D01*
X0010903Y0065050D01*
X0032953Y0065050D01*
X0033333Y0064885D01*
X0034003Y0065050D01*
X0047653Y0065050D01*
X0048333Y0064885D01*
X0048703Y0064000D01*
X0051853Y0060850D01*
X0081253Y0060850D01*
X0086503Y0055600D01*
X0092803Y0055600D01*
X0093333Y0054885D01*
X0093853Y0050350D02*
X0025603Y0050350D01*
X0016153Y0059800D01*
X0015833Y0059885D01*
X0016153Y0069250D02*
X0015833Y0069885D01*
X0016153Y0069250D02*
X0094903Y0069250D01*
X0108553Y0055600D01*
X0123253Y0055600D01*
X0123333Y0054885D01*
X0134803Y0049300D02*
X0136903Y0047200D01*
X0143203Y0047200D01*
X0147403Y0043000D01*
X0148333Y0042385D01*
X0138333Y0042385D02*
X0137953Y0041950D01*
X0131653Y0041950D01*
X0101203Y0011500D01*
X0077053Y0011500D01*
X0073903Y0008350D01*
X0073333Y0007385D01*
X0084403Y0017800D02*
X0079153Y0023050D01*
X0027703Y0023050D01*
X0016153Y0034600D01*
X0015833Y0034885D01*
X0016153Y0044050D02*
X0015833Y0044885D01*
X0016153Y0044050D02*
X0032953Y0044050D01*
X0036103Y0040900D01*
X0080203Y0040900D01*
X0080833Y0039885D01*
X0093853Y0050350D02*
X0099103Y0045100D01*
X0123253Y0045100D01*
X0123333Y0044885D01*
X0134803Y0049300D02*
X0111703Y0049300D01*
X0101203Y0059800D01*
X0087553Y0059800D01*
X0083353Y0064000D01*
X0079153Y0064000D01*
X0078333Y0064885D01*
X0094903Y0077650D02*
X0022453Y0077650D01*
X0016153Y0083950D01*
X0015833Y0084885D01*
X0022453Y0088150D02*
X0016153Y0094450D01*
X0015833Y0094885D01*
X0020353Y0099700D02*
X0026653Y0093400D01*
X0092803Y0093400D01*
X0093333Y0092385D01*
X0093853Y0093400D01*
X0105403Y0093400D01*
X0109603Y0097600D01*
X0143203Y0097600D01*
X0147403Y0093400D01*
X0148333Y0092385D01*
X0123333Y0092385D02*
X0123253Y0092350D01*
X0107503Y0092350D01*
X0103303Y0088150D01*
X0022453Y0088150D01*
X0094903Y0077650D02*
X0099103Y0081850D01*
X0123253Y0081850D01*
X0123333Y0082385D01*
X0092803Y0017800D02*
X0084403Y0017800D01*
X0092803Y0017800D02*
X0093333Y0017385D01*
D15*
X0104353Y0018850D03*
M02*
